<mxfile host="app.diagrams.net" modified="2022-08-09T23:45:12.476Z" agent="5.0 (Windows NT 10.0; Win64; x64) AppleWebKit/537.36 (KHTML, like Gecko) Chrome/103.0.0.0 Safari/537.36" etag="6TbhOkkQvPePNhvV8TX3" version="20.2.2" type="github">
  <diagram id="q6uRK-oxB6_HJzUdJctA" name="Page-1">
    <mxGraphModel dx="1422" dy="737" grid="1" gridSize="10" guides="1" tooltips="1" connect="1" arrows="1" fold="1" page="1" pageScale="1" pageWidth="827" pageHeight="1169" math="0" shadow="0">
      <root>
        <mxCell id="0" />
        <mxCell id="1" parent="0" />
        <mxCell id="lA137ORDE0Yeb99w4U_h-21" style="edgeStyle=orthogonalEdgeStyle;rounded=0;orthogonalLoop=1;jettySize=auto;html=1;exitX=1;exitY=0.5;exitDx=0;exitDy=0;entryX=0;entryY=0.5;entryDx=0;entryDy=0;" edge="1" parent="1" source="lA137ORDE0Yeb99w4U_h-3" target="lA137ORDE0Yeb99w4U_h-4">
          <mxGeometry relative="1" as="geometry" />
        </mxCell>
        <mxCell id="lA137ORDE0Yeb99w4U_h-25" style="edgeStyle=orthogonalEdgeStyle;rounded=0;orthogonalLoop=1;jettySize=auto;html=1;exitX=0.5;exitY=1;exitDx=0;exitDy=0;entryX=0;entryY=0.5;entryDx=0;entryDy=0;" edge="1" parent="1" source="lA137ORDE0Yeb99w4U_h-3" target="lA137ORDE0Yeb99w4U_h-10">
          <mxGeometry relative="1" as="geometry" />
        </mxCell>
        <mxCell id="lA137ORDE0Yeb99w4U_h-26" style="edgeStyle=orthogonalEdgeStyle;rounded=0;orthogonalLoop=1;jettySize=auto;html=1;entryX=0;entryY=0.6;entryDx=0;entryDy=0;entryPerimeter=0;" edge="1" parent="1" source="lA137ORDE0Yeb99w4U_h-3" target="lA137ORDE0Yeb99w4U_h-11">
          <mxGeometry relative="1" as="geometry" />
        </mxCell>
        <mxCell id="lA137ORDE0Yeb99w4U_h-27" style="edgeStyle=orthogonalEdgeStyle;rounded=0;orthogonalLoop=1;jettySize=auto;html=1;entryX=0;entryY=0.5;entryDx=0;entryDy=0;" edge="1" parent="1" source="lA137ORDE0Yeb99w4U_h-3" target="lA137ORDE0Yeb99w4U_h-12">
          <mxGeometry relative="1" as="geometry" />
        </mxCell>
        <mxCell id="lA137ORDE0Yeb99w4U_h-3" value="Population synthesis" style="rounded=0;whiteSpace=wrap;html=1;fillColor=#f5f5f5;fontColor=#333333;strokeColor=#666666;" vertex="1" parent="1">
          <mxGeometry x="110" y="240" width="120" height="60" as="geometry" />
        </mxCell>
        <mxCell id="lA137ORDE0Yeb99w4U_h-22" style="edgeStyle=orthogonalEdgeStyle;rounded=0;orthogonalLoop=1;jettySize=auto;html=1;entryX=0;entryY=0.5;entryDx=0;entryDy=0;" edge="1" parent="1" source="lA137ORDE0Yeb99w4U_h-4" target="lA137ORDE0Yeb99w4U_h-5">
          <mxGeometry relative="1" as="geometry" />
        </mxCell>
        <mxCell id="lA137ORDE0Yeb99w4U_h-23" style="edgeStyle=orthogonalEdgeStyle;rounded=0;orthogonalLoop=1;jettySize=auto;html=1;exitX=0.5;exitY=1;exitDx=0;exitDy=0;entryX=0;entryY=0.5;entryDx=0;entryDy=0;" edge="1" parent="1" source="lA137ORDE0Yeb99w4U_h-4" target="lA137ORDE0Yeb99w4U_h-8">
          <mxGeometry relative="1" as="geometry" />
        </mxCell>
        <mxCell id="lA137ORDE0Yeb99w4U_h-29" style="edgeStyle=orthogonalEdgeStyle;rounded=0;orthogonalLoop=1;jettySize=auto;html=1;entryX=0;entryY=0.5;entryDx=0;entryDy=0;" edge="1" parent="1" source="lA137ORDE0Yeb99w4U_h-4" target="lA137ORDE0Yeb99w4U_h-9">
          <mxGeometry relative="1" as="geometry" />
        </mxCell>
        <mxCell id="lA137ORDE0Yeb99w4U_h-4" value="Activities generation" style="rounded=0;whiteSpace=wrap;html=1;fillColor=#f5f5f5;fontColor=#333333;strokeColor=#666666;" vertex="1" parent="1">
          <mxGeometry x="330" y="240" width="120" height="60" as="geometry" />
        </mxCell>
        <mxCell id="lA137ORDE0Yeb99w4U_h-30" style="edgeStyle=orthogonalEdgeStyle;rounded=0;orthogonalLoop=1;jettySize=auto;html=1;entryX=0;entryY=0.5;entryDx=0;entryDy=0;" edge="1" parent="1" source="lA137ORDE0Yeb99w4U_h-5" target="lA137ORDE0Yeb99w4U_h-6">
          <mxGeometry relative="1" as="geometry" />
        </mxCell>
        <mxCell id="lA137ORDE0Yeb99w4U_h-31" style="edgeStyle=orthogonalEdgeStyle;rounded=0;orthogonalLoop=1;jettySize=auto;html=1;entryX=0;entryY=0.5;entryDx=0;entryDy=0;" edge="1" parent="1" source="lA137ORDE0Yeb99w4U_h-5" target="lA137ORDE0Yeb99w4U_h-7">
          <mxGeometry relative="1" as="geometry" />
        </mxCell>
        <mxCell id="lA137ORDE0Yeb99w4U_h-5" value="Microscopic stimulation" style="rounded=0;whiteSpace=wrap;html=1;fillColor=#f5f5f5;fontColor=#333333;strokeColor=#666666;" vertex="1" parent="1">
          <mxGeometry x="560" y="240" width="120" height="60" as="geometry" />
        </mxCell>
        <mxCell id="lA137ORDE0Yeb99w4U_h-6" value="MATSim" style="ellipse;whiteSpace=wrap;html=1;aspect=fixed;fillColor=#d5e8d4;strokeColor=#82b366;" vertex="1" parent="1">
          <mxGeometry x="640" y="330" width="80" height="80" as="geometry" />
        </mxCell>
        <mxCell id="lA137ORDE0Yeb99w4U_h-7" value="BEAM" style="ellipse;whiteSpace=wrap;html=1;aspect=fixed;fillColor=#fff2cc;strokeColor=#d6b656;" vertex="1" parent="1">
          <mxGeometry x="640" y="440" width="80" height="80" as="geometry" />
        </mxCell>
        <mxCell id="lA137ORDE0Yeb99w4U_h-8" value="MobiTopp" style="ellipse;whiteSpace=wrap;html=1;aspect=fixed;fillColor=#d5e8d4;strokeColor=#82b366;" vertex="1" parent="1">
          <mxGeometry x="414" y="330" width="80" height="80" as="geometry" />
        </mxCell>
        <mxCell id="lA137ORDE0Yeb99w4U_h-9" value="ASim" style="ellipse;whiteSpace=wrap;html=1;aspect=fixed;fillColor=#fff2cc;strokeColor=#d6b656;" vertex="1" parent="1">
          <mxGeometry x="414" y="440" width="80" height="80" as="geometry" />
        </mxCell>
        <mxCell id="lA137ORDE0Yeb99w4U_h-10" value="IPF" style="ellipse;whiteSpace=wrap;html=1;aspect=fixed;fillColor=#d5e8d4;strokeColor=#82b366;" vertex="1" parent="1">
          <mxGeometry x="200" y="330" width="80" height="80" as="geometry" />
        </mxCell>
        <mxCell id="lA137ORDE0Yeb99w4U_h-11" value="BN" style="ellipse;whiteSpace=wrap;html=1;aspect=fixed;fillColor=#d5e8d4;strokeColor=#82b366;" vertex="1" parent="1">
          <mxGeometry x="200" y="440" width="80" height="80" as="geometry" />
        </mxCell>
        <mxCell id="lA137ORDE0Yeb99w4U_h-12" value="RL" style="ellipse;whiteSpace=wrap;html=1;aspect=fixed;fillColor=#f8cecc;strokeColor=#b85450;" vertex="1" parent="1">
          <mxGeometry x="200" y="560" width="80" height="80" as="geometry" />
        </mxCell>
        <mxCell id="lA137ORDE0Yeb99w4U_h-16" value="Population evolution" style="rhombus;whiteSpace=wrap;html=1;" vertex="1" parent="1">
          <mxGeometry x="40" y="130" width="80" height="80" as="geometry" />
        </mxCell>
        <mxCell id="lA137ORDE0Yeb99w4U_h-17" value="Mode choice" style="rhombus;whiteSpace=wrap;html=1;" vertex="1" parent="1">
          <mxGeometry x="280" y="130" width="80" height="80" as="geometry" />
        </mxCell>
        <mxCell id="lA137ORDE0Yeb99w4U_h-18" value="Location choice" style="rhombus;whiteSpace=wrap;html=1;" vertex="1" parent="1">
          <mxGeometry x="370" y="130" width="80" height="80" as="geometry" />
        </mxCell>
        <mxCell id="lA137ORDE0Yeb99w4U_h-19" value="Travel behaviours" style="rhombus;whiteSpace=wrap;html=1;" vertex="1" parent="1">
          <mxGeometry x="320" y="70" width="80" height="80" as="geometry" />
        </mxCell>
        <mxCell id="lA137ORDE0Yeb99w4U_h-20" value="Agents behaviours" style="rhombus;whiteSpace=wrap;html=1;" vertex="1" parent="1">
          <mxGeometry x="510" y="130" width="80" height="80" as="geometry" />
        </mxCell>
        <mxCell id="lA137ORDE0Yeb99w4U_h-32" value="Data flexibility" style="rhombus;whiteSpace=wrap;html=1;" vertex="1" parent="1">
          <mxGeometry x="80" y="70" width="80" height="80" as="geometry" />
        </mxCell>
        <mxCell id="lA137ORDE0Yeb99w4U_h-33" value="Energy demands" style="rhombus;whiteSpace=wrap;html=1;" vertex="1" parent="1">
          <mxGeometry x="600" y="130" width="80" height="80" as="geometry" />
        </mxCell>
        <mxCell id="lA137ORDE0Yeb99w4U_h-36" value="Heterogenic" style="rhombus;whiteSpace=wrap;html=1;" vertex="1" parent="1">
          <mxGeometry x="130" y="130" width="80" height="80" as="geometry" />
        </mxCell>
        <mxCell id="lA137ORDE0Yeb99w4U_h-37" value="Max Util" style="rhombus;whiteSpace=wrap;html=1;" vertex="1" parent="1">
          <mxGeometry x="550" y="70" width="80" height="80" as="geometry" />
        </mxCell>
      </root>
    </mxGraphModel>
  </diagram>
</mxfile>
